<svg width="206" height="124" viewBox="0 0 206 124" fill="none" xmlns="http://www.w3.org/2000/svg">
<path d="M22.6992 84.1133L36.8594 21.9062H45.0137L48.2363 29.6211L33.1484 93H24.2129L22.6992 84.1133ZM17.1816 21.9062L29.0469 84.4062L26.9961 93H16.8398L1.41016 21.9062H17.1816ZM58.3438 84.0645L70.0625 21.9062H85.7852L70.3555 93H60.2969L58.3438 84.0645ZM50.3359 21.9062L64.6914 84.4551L63.0312 93H54.1445L38.8125 29.5723L42.1816 21.9062H50.3359ZM126.975 74.25C126.975 73.0456 126.796 71.9714 126.438 71.0273C126.079 70.0508 125.428 69.1556 124.484 68.3418C123.54 67.528 122.206 66.7142 120.48 65.9004C118.755 65.054 116.493 64.1914 113.693 63.3125C110.503 62.2708 107.46 61.099 104.562 59.7969C101.698 58.4622 99.1426 56.916 96.8965 55.1582C94.6504 53.4004 92.8763 51.3496 91.5742 49.0059C90.3047 46.6621 89.6699 43.9277 89.6699 40.8027C89.6699 37.7754 90.3372 35.041 91.6719 32.5996C93.0065 30.1582 94.8783 28.0749 97.2871 26.3496C99.696 24.5918 102.528 23.2572 105.783 22.3457C109.038 21.4017 112.619 20.9297 116.525 20.9297C121.734 20.9297 126.307 21.8574 130.246 23.7129C134.217 25.5358 137.31 28.1074 139.523 31.4277C141.737 34.7155 142.844 38.5404 142.844 42.9023H127.023C127.023 40.9818 126.617 39.2891 125.803 37.8242C125.021 36.3268 123.817 35.1549 122.189 34.3086C120.594 33.4622 118.592 33.0391 116.184 33.0391C113.84 33.0391 111.87 33.3971 110.275 34.1133C108.713 34.7969 107.525 35.7409 106.711 36.9453C105.93 38.1497 105.539 39.4681 105.539 40.9004C105.539 42.0397 105.832 43.0814 106.418 44.0254C107.036 44.9368 107.915 45.7995 109.055 46.6133C110.227 47.3945 111.659 48.1432 113.352 48.8594C115.044 49.5755 116.981 50.2591 119.162 50.9102C122.971 52.1146 126.34 53.4492 129.27 54.9141C132.232 56.3789 134.722 58.0391 136.74 59.8945C138.758 61.75 140.272 63.8496 141.281 66.1934C142.323 68.5371 142.844 71.1901 142.844 74.1523C142.844 77.3099 142.225 80.1094 140.988 82.5508C139.784 84.9922 138.026 87.0755 135.715 88.8008C133.436 90.4935 130.702 91.7793 127.512 92.6582C124.322 93.5371 120.757 93.9766 116.818 93.9766C113.238 93.9766 109.706 93.5208 106.223 92.6094C102.74 91.6654 99.582 90.2331 96.75 88.3125C93.9505 86.3919 91.7044 83.9505 90.0117 80.9883C88.3516 77.9935 87.5215 74.4453 87.5215 70.3438H103.439C103.439 72.4922 103.749 74.3151 104.367 75.8125C104.986 77.2773 105.865 78.4655 107.004 79.377C108.176 80.2884 109.592 80.9395 111.252 81.3301C112.912 81.7207 114.768 81.916 116.818 81.916C119.195 81.916 121.115 81.5905 122.58 80.9395C124.077 80.2559 125.184 79.3281 125.9 78.1562C126.617 76.9844 126.975 75.6823 126.975 74.25ZM182.324 21.9062V93H166.455V21.9062H182.324ZM203.955 21.9062V34.2598H145.264V21.9062H203.955Z" fill="url(#paint0_linear_22_8)"/>
<rect y="102" width="206" height="22" rx="11" fill="url(#paint1_linear_22_8)"/>
<defs>
<linearGradient id="paint0_linear_22_8" x1="0" y1="58.5" x2="206" y2="58.5" gradientUnits="userSpaceOnUse">
<stop stop-color="#55F5FF"/>
<stop offset="0.6875" stop-color="#73FF71"/>
</linearGradient>
<linearGradient id="paint1_linear_22_8" x1="0" y1="113" x2="206" y2="113" gradientUnits="userSpaceOnUse">
<stop stop-color="#55F5FF"/>
<stop offset="0.6875" stop-color="#73FF71"/>
</linearGradient>
</defs>
</svg>
