<svg width="39" height="39" viewBox="0 0 39 39" fill="none" xmlns="http://www.w3.org/2000/svg">
<path d="M28.6222 25.2116C30.9824 21.9906 32.0394 17.997 31.582 14.03C31.1245 10.0629 29.1863 6.41491 26.155 3.81576C23.1237 1.2166 19.223 -0.141997 15.2332 0.0117599C11.2433 0.165517 7.45867 1.82029 4.63636 4.64503C1.81404 7.46976 0.162206 11.2561 0.0113255 15.2466C-0.139555 19.2371 1.22165 23.1374 3.8226 26.1673C6.42356 29.1971 10.0724 31.1331 14.0393 31.5877C18.0061 32.0424 21.9983 30.9823 25.2172 28.6196H25.2147C25.2879 28.7171 25.3659 28.8097 25.4536 28.8999L34.8376 38.2852C35.2947 38.7427 35.9147 38.9998 36.5612 39C37.2078 39.0002 37.828 38.7436 38.2853 38.2865C38.7427 37.8294 38.9998 37.2093 39 36.5626C39.0002 35.916 38.7436 35.2957 38.2866 34.8383L28.9025 25.4529C28.8154 25.3647 28.7217 25.2832 28.6222 25.2091V25.2116ZM29.2511 15.8409C29.2511 17.6016 28.9043 19.3451 28.2306 20.9717C27.5569 22.5984 26.5695 24.0765 25.3246 25.3215C24.0798 26.5665 22.602 27.5541 20.9755 28.2279C19.349 28.9017 17.6058 29.2485 15.8453 29.2485C14.0849 29.2485 12.3416 28.9017 10.7152 28.2279C9.08873 27.5541 7.61089 26.5665 6.36605 25.3215C5.12121 24.0765 4.13375 22.5984 3.46005 20.9717C2.78635 19.3451 2.4396 17.6016 2.4396 15.8409C2.4396 12.2849 3.85198 8.87466 6.36605 6.36024C8.88011 3.84582 12.2899 2.43324 15.8453 2.43324C19.4008 2.43324 22.8106 3.84582 25.3246 6.36024C27.8387 8.87466 29.2511 12.2849 29.2511 15.8409V15.8409Z" fill="white"/>
</svg>
